<svg width="20" height="21" viewBox="0 0 20 21" fill="none" xmlns="http://www.w3.org/2000/svg">
<path d="M16.1115 0.861056L16.1117 0.861222L18.7734 3.52041C18.7735 3.52058 18.7737 3.52074 18.7739 3.52091C19.3366 4.08607 19.5973 4.89191 19.467 5.6699L19.4668 5.67063C18.9359 8.86855 17.2316 12.0615 14.6463 14.6517C12.0586 17.2369 8.86592 18.9432 5.67129 19.4692L5.66783 19.4698C5.53771 19.4922 5.40864 19.5026 5.27252 19.5026C4.62039 19.5026 3.98248 19.2379 3.52107 18.7765L0.861056 16.1165C0.626802 15.8823 0.5 15.5767 0.5 15.2476C0.5 14.9212 0.629104 14.6107 0.860822 14.3788C0.8609 14.3788 0.860978 14.3787 0.861056 14.3786L3.73061 11.5166L3.73062 11.5166L3.73344 11.5137C3.84606 11.3996 3.98034 11.309 4.12839 11.2475L3.94812 10.8141L4.1284 11.2475C4.27645 11.1859 4.43531 11.1545 4.59567 11.155H4.59752C4.92316 11.155 5.23138 11.2836 5.46377 11.5159L5.46397 11.5161L7.70378 13.7584L7.94408 13.999L8.25612 13.8639C9.50343 13.3241 10.6287 12.561 11.5913 11.5934C12.5526 10.6353 13.3217 9.50201 13.857 8.25474L13.9905 7.94367L13.7513 7.70418L11.5113 5.46167L11.5111 5.46147C11.2768 5.22722 11.15 4.92168 11.15 4.59252C11.15 4.26616 11.2791 3.95571 11.5108 3.72388L11.5111 3.72357L14.3783 0.861368L14.38 0.859699C14.6106 0.627254 14.9177 0.5 15.2451 0.5C15.5708 0.5 15.8791 0.628642 16.1115 0.861056ZM1.46879 14.8942L1.11556 15.2477L1.46895 15.6011L4.08146 18.2136L4.08311 18.2153C4.46308 18.5917 5.00285 18.773 5.53661 18.6834C8.60047 18.1766 11.6299 16.5348 14.0811 14.0836C16.5322 11.6325 18.1739 8.60091 18.6807 5.53746C18.7707 5.00312 18.5892 4.46208 18.2086 4.08147L15.5961 1.46895L15.2424 1.11524L14.8889 1.46911L12.1188 4.24163L11.7655 4.59533L12.1191 4.94872L14.9123 7.73958L14.8237 7.97888L14.8232 7.98016C14.2468 9.54965 13.336 10.975 12.1539 12.1575C10.9718 13.34 9.54678 14.2513 7.97749 14.8283L7.97638 14.8287L7.73719 14.9173L4.94637 12.1218L4.59266 11.7675L4.23881 12.1217L1.46879 14.8942Z" fill="white" stroke="white"/>
</svg>
