<svg width="20" height="20" viewBox="0 0 20 20" fill="none" xmlns="http://www.w3.org/2000/svg">
<path d="M18.3332 16.6667V10.145C18.3332 9.69131 18.2406 9.24235 18.0611 8.82566C17.8815 8.40896 17.6188 8.03331 17.289 7.72171L11.1448 1.91504C10.8354 1.62248 10.4257 1.45947 9.99984 1.45947C9.57398 1.45947 9.16429 1.62248 8.85484 1.91504L2.71067 7.72171C2.38086 8.03331 2.11813 8.40896 1.93859 8.82566C1.75904 9.24235 1.66646 9.69131 1.6665 10.145V16.6667C1.6665 17.1087 1.8421 17.5327 2.15466 17.8452C2.46722 18.1578 2.89114 18.3334 3.33317 18.3334H16.6665C17.1085 18.3334 17.5325 18.1578 17.845 17.8452C18.1576 17.5327 18.3332 17.1087 18.3332 16.6667Z" stroke="#FAFAFA" stroke-width="2" stroke-linecap="round" stroke-linejoin="round"/>
</svg>
