<svg width="303" height="54" viewBox="0 0 303 54" fill="none" xmlns="http://www.w3.org/2000/svg">
<path d="M16.032 43C15.36 43 14.784 42.76 14.304 42.28C13.824 41.8 13.584 41.208 13.584 40.504V29.32L0.768 9.4C0.352 8.728 0.192 8.104 0.288 7.528C0.384 6.92 0.656 6.44 1.104 6.088C1.584 5.704 2.128 5.512 2.736 5.512C3.28 5.512 3.712 5.64 4.032 5.896C4.352 6.12 4.656 6.456 4.944 6.904L17.136 26.248H15.216L27.6 6.712C27.856 6.328 28.16 6.04 28.512 5.848C28.864 5.624 29.296 5.512 29.808 5.512C30.384 5.512 30.864 5.72 31.248 6.136C31.632 6.52 31.856 7.016 31.92 7.624C31.984 8.2 31.824 8.792 31.44 9.4L18.528 29.32V40.504C18.528 41.208 18.288 41.8 17.808 42.28C17.328 42.76 16.736 43 16.032 43ZM44.031 43.192C41.375 43.192 39.007 42.632 36.927 41.512C34.879 40.36 33.263 38.792 32.079 36.808C30.927 34.792 30.351 32.488 30.351 29.896C30.351 27.272 30.895 24.968 31.983 22.984C33.103 20.968 34.639 19.4 36.591 18.28C38.543 17.128 40.783 16.552 43.311 16.552C45.807 16.552 47.951 17.112 49.743 18.232C51.535 19.32 52.895 20.84 53.823 22.792C54.783 24.712 55.263 26.936 55.263 29.464C55.263 30.072 55.055 30.584 54.639 31C54.223 31.384 53.695 31.576 53.055 31.576H33.711V27.736H52.911L50.943 29.08C50.911 27.48 50.591 26.056 49.983 24.808C49.375 23.528 48.511 22.52 47.391 21.784C46.271 21.048 44.911 20.68 43.311 20.68C41.487 20.68 39.919 21.08 38.607 21.88C37.327 22.68 36.351 23.784 35.679 25.192C35.007 26.568 34.671 28.136 34.671 29.896C34.671 31.656 35.071 33.224 35.871 34.6C36.671 35.976 37.775 37.064 39.183 37.864C40.591 38.664 42.207 39.064 44.031 39.064C45.023 39.064 46.031 38.888 47.055 38.536C48.111 38.152 48.959 37.72 49.599 37.24C50.079 36.888 50.591 36.712 51.135 36.712C51.711 36.68 52.207 36.84 52.623 37.192C53.167 37.672 53.455 38.2 53.487 38.776C53.519 39.352 53.263 39.848 52.719 40.264C51.631 41.128 50.271 41.832 48.639 42.376C47.039 42.92 45.503 43.192 44.031 43.192ZM67.7475 43C66.3395 43 65.0915 42.616 64.0035 41.848C62.9155 41.08 62.0675 40.04 61.4595 38.728C60.8515 37.384 60.5475 35.848 60.5475 34.12V7.912C60.5475 7.208 60.7715 6.632 61.2195 6.184C61.6675 5.736 62.2435 5.512 62.9475 5.512C63.6515 5.512 64.2275 5.736 64.6755 6.184C65.1235 6.632 65.3475 7.208 65.3475 7.912V34.12C65.3475 35.304 65.5715 36.28 66.0195 37.048C66.4675 37.816 67.0435 38.2 67.7475 38.2H68.9475C69.5875 38.2 70.0995 38.424 70.4835 38.872C70.8995 39.32 71.1075 39.896 71.1075 40.6C71.1075 41.304 70.8035 41.88 70.1955 42.328C69.5875 42.776 68.8035 43 67.8435 43H67.7475ZM82.1381 43C80.7301 43 79.4821 42.616 78.3941 41.848C77.3061 41.08 76.4581 40.04 75.8501 38.728C75.2421 37.384 74.9381 35.848 74.9381 34.12V7.912C74.9381 7.208 75.1621 6.632 75.6101 6.184C76.0581 5.736 76.6341 5.512 77.3381 5.512C78.0421 5.512 78.6181 5.736 79.0661 6.184C79.5141 6.632 79.7381 7.208 79.7381 7.912V34.12C79.7381 35.304 79.9621 36.28 80.4101 37.048C80.8581 37.816 81.4341 38.2 82.1381 38.2H83.3381C83.9781 38.2 84.4901 38.424 84.8741 38.872C85.2901 39.32 85.4981 39.896 85.4981 40.6C85.4981 41.304 85.1941 41.88 84.5861 42.328C83.9781 42.776 83.1941 43 82.2341 43H82.1381ZM100.74 43.192C98.1476 43.192 95.8596 42.632 93.8756 41.512C91.8916 40.36 90.3236 38.792 89.1716 36.808C88.0516 34.792 87.4916 32.488 87.4916 29.896C87.4916 27.272 88.0516 24.968 89.1716 22.984C90.3236 20.968 91.8916 19.4 93.8756 18.28C95.8596 17.128 98.1476 16.552 100.74 16.552C103.3 16.552 105.572 17.128 107.556 18.28C109.54 19.4 111.092 20.968 112.212 22.984C113.364 24.968 113.94 27.272 113.94 29.896C113.94 32.488 113.38 34.792 112.26 36.808C111.14 38.792 109.588 40.36 107.604 41.512C105.62 42.632 103.332 43.192 100.74 43.192ZM100.74 38.872C102.404 38.872 103.876 38.488 105.156 37.72C106.436 36.952 107.428 35.896 108.132 34.552C108.868 33.208 109.236 31.656 109.236 29.896C109.236 28.136 108.868 26.584 108.132 25.24C107.428 23.864 106.436 22.792 105.156 22.024C103.876 21.256 102.404 20.872 100.74 20.872C99.0756 20.872 97.6036 21.256 96.3236 22.024C95.0436 22.792 94.0356 23.864 93.2996 25.24C92.5636 26.584 92.1956 28.136 92.1956 29.896C92.1956 31.656 92.5636 33.208 93.2996 34.552C94.0356 35.896 95.0436 36.952 96.3236 37.72C97.6036 38.488 99.0756 38.872 100.74 38.872ZM125.821 43C125.309 43 124.829 42.856 124.381 42.568C123.965 42.248 123.677 41.864 123.517 41.416L116.413 20.104C116.157 19.112 116.157 18.312 116.413 17.704C116.701 17.064 117.309 16.744 118.237 16.744C118.845 16.744 119.341 16.92 119.725 17.272C120.141 17.592 120.477 18.152 120.733 18.952L126.781 37.864H125.101L130.813 18.568C130.973 18.024 131.245 17.592 131.629 17.272C132.013 16.92 132.541 16.744 133.213 16.744C133.853 16.744 134.365 16.92 134.749 17.272C135.165 17.592 135.437 18.024 135.565 18.568L140.221 36.712H139.501L145.165 18.952C145.613 17.48 146.445 16.744 147.661 16.744C148.557 16.744 149.165 17.064 149.485 17.704C149.805 18.312 149.789 19.112 149.437 20.104L142.333 41.416C142.205 41.864 141.933 42.248 141.517 42.568C141.101 42.856 140.621 43 140.077 43C139.565 43 139.085 42.856 138.637 42.568C138.189 42.248 137.901 41.864 137.773 41.416L132.829 23.128H133.309L128.125 41.416C127.997 41.864 127.709 42.248 127.261 42.568C126.845 42.856 126.365 43 125.821 43ZM164.247 43.192C162.007 43.192 159.927 42.856 158.007 42.184C156.119 41.48 154.647 40.6 153.591 39.544C153.111 39.032 152.903 38.456 152.967 37.816C153.063 37.144 153.383 36.6 153.927 36.184C154.567 35.672 155.191 35.464 155.799 35.56C156.439 35.624 156.983 35.896 157.431 36.376C157.975 36.984 158.839 37.56 160.023 38.104C161.239 38.616 162.583 38.872 164.055 38.872C165.911 38.872 167.319 38.568 168.279 37.96C169.271 37.352 169.783 36.568 169.815 35.608C169.847 34.648 169.383 33.816 168.423 33.112C167.495 32.408 165.783 31.832 163.287 31.384C160.055 30.744 157.703 29.784 156.231 28.504C154.791 27.224 154.071 25.656 154.071 23.8C154.071 22.168 154.551 20.824 155.511 19.768C156.471 18.68 157.703 17.88 159.207 17.368C160.711 16.824 162.279 16.552 163.911 16.552C166.023 16.552 167.895 16.888 169.527 17.56C171.159 18.232 172.455 19.16 173.415 20.344C173.863 20.856 174.071 21.4 174.039 21.976C174.007 22.52 173.735 22.984 173.223 23.368C172.711 23.72 172.103 23.832 171.399 23.704C170.695 23.576 170.103 23.288 169.623 22.84C168.823 22.072 167.959 21.544 167.031 21.256C166.103 20.968 165.031 20.824 163.815 20.824C162.407 20.824 161.207 21.064 160.215 21.544C159.255 22.024 158.775 22.728 158.775 23.656C158.775 24.232 158.919 24.76 159.207 25.24C159.527 25.688 160.135 26.104 161.031 26.488C161.927 26.84 163.239 27.192 164.967 27.544C167.367 28.024 169.255 28.632 170.631 29.368C172.039 30.104 173.047 30.968 173.655 31.96C174.263 32.92 174.567 34.04 174.567 35.32C174.567 36.792 174.167 38.12 173.367 39.304C172.599 40.488 171.447 41.432 169.911 42.136C168.407 42.84 166.519 43.192 164.247 43.192ZM193.094 43.192C190.438 43.192 188.07 42.632 185.99 41.512C183.942 40.36 182.326 38.792 181.142 36.808C179.99 34.792 179.414 32.488 179.414 29.896C179.414 27.272 179.958 24.968 181.046 22.984C182.166 20.968 183.702 19.4 185.654 18.28C187.606 17.128 189.846 16.552 192.374 16.552C194.87 16.552 197.014 17.112 198.806 18.232C200.598 19.32 201.958 20.84 202.885 22.792C203.846 24.712 204.326 26.936 204.326 29.464C204.326 30.072 204.118 30.584 203.702 31C203.286 31.384 202.758 31.576 202.118 31.576H182.773V27.736H201.974L200.006 29.08C199.974 27.48 199.654 26.056 199.046 24.808C198.438 23.528 197.574 22.52 196.454 21.784C195.334 21.048 193.974 20.68 192.374 20.68C190.55 20.68 188.982 21.08 187.67 21.88C186.39 22.68 185.414 23.784 184.742 25.192C184.07 26.568 183.734 28.136 183.734 29.896C183.734 31.656 184.134 33.224 184.934 34.6C185.734 35.976 186.838 37.064 188.246 37.864C189.654 38.664 191.27 39.064 193.094 39.064C194.086 39.064 195.094 38.888 196.118 38.536C197.174 38.152 198.022 37.72 198.662 37.24C199.142 36.888 199.654 36.712 200.198 36.712C200.774 36.68 201.27 36.84 201.686 37.192C202.23 37.672 202.518 38.2 202.55 38.776C202.582 39.352 202.326 39.848 201.781 40.264C200.694 41.128 199.334 41.832 197.702 42.376C196.102 42.92 194.566 43.192 193.094 43.192ZM220.577 43.192C218.241 43.192 216.145 42.616 214.289 41.464C212.433 40.28 210.961 38.696 209.873 36.712C208.817 34.696 208.289 32.424 208.289 29.896C208.289 27.368 208.865 25.096 210.017 23.08C211.201 21.064 212.785 19.48 214.769 18.328C216.785 17.144 219.041 16.552 221.537 16.552C224.033 16.552 226.273 17.144 228.257 18.328C230.241 19.48 231.809 21.064 232.961 23.08C234.145 25.096 234.737 27.368 234.737 29.896H232.865C232.865 32.424 232.321 34.696 231.233 36.712C230.177 38.696 228.721 40.28 226.865 41.464C225.009 42.616 222.913 43.192 220.577 43.192ZM221.537 38.872C223.169 38.872 224.625 38.488 225.905 37.72C227.185 36.92 228.193 35.848 228.929 34.504C229.665 33.128 230.033 31.592 230.033 29.896C230.033 28.168 229.665 26.632 228.929 25.288C228.193 23.912 227.185 22.84 225.905 22.072C224.625 21.272 223.169 20.872 221.537 20.872C219.937 20.872 218.481 21.272 217.169 22.072C215.889 22.84 214.865 23.912 214.097 25.288C213.361 26.632 212.993 28.168 212.993 29.896C212.993 31.592 213.361 33.128 214.097 34.504C214.865 35.848 215.889 36.92 217.169 37.72C218.481 38.488 219.937 38.872 221.537 38.872ZM232.289 43.048C231.585 43.048 230.993 42.824 230.513 42.376C230.065 41.896 229.841 41.304 229.841 40.6V33.256L230.753 28.168L234.737 29.896V40.6C234.737 41.304 234.497 41.896 234.017 42.376C233.569 42.824 232.993 43.048 232.289 43.048Z" fill="#FAFAFA"/>
<path d="M270.269 40.5V37.125C271.828 37.0122 273.29 36.4427 274.397 35.5166C275.503 34.5905 276.184 33.3673 276.319 32.0625H280.352C280.222 34.265 279.118 36.3483 277.254 37.9076C275.391 39.4669 272.901 40.3909 270.269 40.5Z" fill="#DBB65E"/>
<path d="M270.269 47.2499C265.457 47.245 260.843 45.6433 257.44 42.7962C254.038 39.949 252.124 36.0889 252.118 32.0624C252.226 29.1021 253.265 26.218 255.131 23.7009L268.561 5.79986C268.755 5.57206 269.011 5.38635 269.308 5.25822C269.605 5.13009 269.934 5.06323 270.269 5.06323C270.603 5.06323 270.932 5.13009 271.23 5.25822C271.527 5.38635 271.783 5.57206 271.977 5.79986L285.348 23.6131C287.245 26.1536 288.305 29.0686 288.42 32.0624C288.414 36.0889 286.5 39.949 283.097 42.7962C279.694 45.6433 275.081 47.245 270.269 47.2499ZM270.269 9.86842L258.608 25.4069C257.105 27.4067 256.258 29.702 256.151 32.0624C256.151 35.1953 257.639 38.1998 260.286 40.4151C262.934 42.6304 266.525 43.8749 270.269 43.8749C274.013 43.8749 277.604 42.6304 280.251 40.4151C282.899 38.1998 284.386 35.1953 284.386 32.0624C284.271 29.669 283.403 27.3435 281.869 25.3209L270.269 9.86842Z" fill="#DBB65E"/>
</svg>
